<svg xmlns="http://www.w3.org/2000/svg" width="55" height="55" viewBox="0 0 55 55">
  <g id="user-orange" transform="translate(3765 2527)">
    <g id="Rectángulo_1288" data-name="Rectángulo 1288" transform="translate(-3765 -2527)" fill="#fff" stroke="#707070" stroke-width="1" opacity="0">
      <rect width="55" height="55" stroke="none"/>
      <rect x="0.5" y="0.5" width="54" height="54" fill="none"/>
    </g>
    <g id="Grupo_2801" data-name="Grupo 2801" transform="translate(-3761.168 -2522.624)">
      <ellipse id="Elipse_34" data-name="Elipse 34" cx="21" cy="21.5" rx="21" ry="21.5" transform="translate(4.168 -0.376)" fill="#ebbe7e"/>
      <g id="Grupo_2707" data-name="Grupo 2707" transform="translate(13.76 7.693)">
        <g id="Grupo_2702" data-name="Grupo 2702" transform="translate(0 0)">
          <g id="Grupo_2701" data-name="Grupo 2701" transform="translate(0 0)">
            <g id="Grupo_2698" data-name="Grupo 2698" transform="translate(5.413)">
              <path id="Trazado_2686" data-name="Trazado 2686" d="M1186.976,6864.168a5.945,5.945,0,1,1,5.945-5.945A5.952,5.952,0,0,1,1186.976,6864.168Zm0-10.254a4.309,4.309,0,1,0,4.309,4.309A4.313,4.313,0,0,0,1186.976,6853.914Z" transform="translate(-1181.031 -6852.277)" fill="#fff"/>
            </g>
            <g id="Grupo_2699" data-name="Grupo 2699" transform="translate(0 13.619)">
              <path id="Trazado_2687" data-name="Trazado 2687" d="M1156.389,6978.292h-20.062a.818.818,0,0,1-.818-.817v-5.906a4.753,4.753,0,0,1,4.748-4.748h12.2a4.753,4.753,0,0,1,4.748,4.748v5.906A.818.818,0,0,1,1156.389,6978.292Zm-19.244-1.636h18.426v-5.088a3.114,3.114,0,0,0-3.111-3.111h-12.2a3.114,3.114,0,0,0-3.111,3.111Z" transform="translate(-1135.508 -6966.82)" fill="#fff"/>
            </g>
            <g id="Grupo_2700" data-name="Grupo 2700" transform="translate(10.539 10.254)">
              <path id="Trazado_2688" data-name="Trazado 2688" d="M1224.968,6941.281a.819.819,0,0,1-.818-.818v-1.126a.818.818,0,1,1,1.637,0v1.126A.819.819,0,0,1,1224.968,6941.281Z" transform="translate(-1224.15 -6938.517)" fill="#fff"/>
            </g>
          </g>
        </g>
      </g>
      <g id="Elipse_1" data-name="Elipse 1" transform="translate(0.168 23.624)" fill="#fff" stroke="#eabe7e" stroke-width="1">
        <circle cx="12" cy="12" r="12" stroke="none"/>
        <circle cx="12" cy="12" r="11.5" fill="none"/>
      </g>
      <path id="Trazado_2690" data-name="Trazado 2690" d="M363.669,698.188v8.359h5.173" transform="translate(-352.136 -669.6)" fill="none" stroke="#e9be7e" stroke-linecap="round" stroke-linejoin="round" stroke-width="1.8"/>
    </g>
  </g>
</svg>
